<svg width="800" height="800" viewBox="0 0 800 800" fill="none" xmlns="http://www.w3.org/2000/svg">
<g clip-path="url(#clip0_2001_19)">
<path d="M400 800C620.914 800 800 620.914 800 400C800 179.086 620.914 0 400 0C179.086 0 0 179.086 0 400C0 620.914 179.086 800 400 800Z" fill="white"/>
<path d="M316.328 365.625L400 281.953L483.672 365.703L532.344 317.031L400 184.609L267.656 316.953L316.328 365.625Z" fill="#D4A53D"/>
<path d="M184.62 399.961L233.288 351.291L281.958 399.959L233.29 448.629L184.62 399.961Z" fill="#D4A53D"/>
<path d="M316.328 434.375L400 518.047L483.672 434.297L532.422 482.969H532.344L400 615.391L267.656 483.047L267.578 482.969L316.328 434.375Z" fill="#D4A53D"/>
<path d="M518.024 400.044L566.692 351.374L615.362 400.042L566.694 448.712L518.024 400.044Z" fill="#D4A53D"/>
<path d="M449.375 400L400 350.547L363.516 387.109L359.297 391.25L350.625 399.922L350.547 400L350.625 400.078L400 449.453L449.375 400Z" fill="#D4A53D"/>
</g>
<defs>
<clipPath id="clip0_2001_19">
<rect width="800" height="800" fill="white"/>
</clipPath>
</defs>
</svg>
